Coordinates
version=1
nRows=7
nColumns=63
inDegrees=yes

Units are S.I. units (second, meters, Newtons, ...)
If the header above contains a line with 'inDegrees', this indicates whether rotational values are in degrees (yes) or radians (no).

endheader
time	pelvis_tilt	pelvis_list	pelvis_rotation	pelvis_tx	pelvis_ty	pelvis_tz	hip_flexion_r	hip_adduction_r	hip_rotation_r	knee_angle_r	knee_angle_r_beta	ankle_angle_r	subtalar_angle_r	mtp_angle_r	hip_flexion_l	hip_adduction_l	hip_rotation_l	knee_angle_l	knee_angle_l_beta	ankle_angle_l	subtalar_angle_l	mtp_angle_l	L5_S1_Flex_Ext	L5_S1_Lat_Bending	L5_S1_axial_rotation	L4_L5_Flex_Ext	L4_L5_Lat_Bending	L4_L5_axial_rotation	L3_L4_Flex_Ext	L3_L4_Lat_Bending	L3_L4_axial_rotation	L2_L3_Flex_Ext	L2_L3_Lat_Bending	L2_L3_axial_rotation	L1_L2_Flex_Ext	L1_L2_Lat_Bending	L1_L2_axial_rotation	L1_T12_Flex_Ext	L1_T12_Lat_Bending	L1_T12_axial_rotation	Abs_r3	Abs_r2	Abs_r1	Abs_t1	Abs_t2	neck_flexion	neck_bending	neck_rotation	arm_flex_r	arm_add_r	arm_rot_r	elbow_flex_r	pro_sup_r	wrist_flex_r	wrist_dev_r	arm_flex_l	arm_add_l	arm_rot_l	elbow_flex_l	pro_sup_l	wrist_flex_l	wrist_dev_l
      2.91666667	      3.01350259	     -4.68424924	    100.84191768	      0.28941028	      0.90146256	      0.70513329	      3.99257095	      6.50339763	      4.43120640	     12.02163280	      0.20981707	     24.98932743	    -10.31490133	      0.00000000	     -1.56409528	     -5.80137064	      9.46525584	      0.69187965	      0.01207558	     24.10474235	     -6.02689820	      0.00000000	      0.06554799	     -0.07286303	     -0.36118023	      0.12172917	     -0.09690782	     -0.38375399	      0.10768879	     -0.17715916	     -0.38375399	      0.07491480	     -0.17715916	     -0.31603270	      0.06086786	     -0.14858228	     -0.29345893	      0.03745412	     -0.11286483	     -0.27088517	      0.46820274	     -0.82424112	     -2.00877606	      0.00000000	      0.00000000	     25.78643141	    -18.26715646	     -2.42131189	      0.12891398	    -15.72286118	     38.74867437	     29.54369736	     71.69708948	    -10.02916383	      4.20817752	     13.52170267	    -26.75777332	    -50.93294758	    149.80485041	     85.55167318	      0.14431999	     20.48685081
      2.93333333	      3.59735884	     -5.11420615	    100.87625785	      0.28703419	      0.90016771	      0.70466026	      4.48171381	      6.82610253	      3.89003422	     12.01123277	      0.20963556	     25.26836292	     -9.52448213	      0.00000000	     -1.08776953	     -6.17144835	      9.50445760	      0.67774671	      0.01182891	     24.48094654	     -6.19060639	      0.00000000	      0.12399404	     -0.01346338	     -0.65195234	      0.23026933	     -0.01790630	     -0.69269936	      0.20370980	     -0.03273487	     -0.69269936	      0.14171279	     -0.03273487	     -0.57045829	      0.11514086	     -0.02745453	     -0.52971127	      0.07085019	     -0.02085478	     -0.48896425	      0.88567701	     -0.15230049	     -3.62596331	      0.00000000	      0.00000000	     26.83767091	    -16.65409000	     -2.66632212	      1.25132124	    -16.11136248	     41.73371368	     29.33468642	     70.55489923	    -10.15546214	      3.78436310	      5.61013856	    -25.27831973	    -48.27313623	    148.85278632	     59.88191565	    -12.56155165	     20.92117623
      2.95000000	      3.53248669	     -5.18040196	    100.97105300	      0.28689093	      0.89936068	      0.70554553	      4.67548377	      6.73098420	      3.77217479	     12.23270308	      0.21350095	     25.78990588	     -9.48252577	      0.00000000	     -0.97844651	     -6.06256967	      9.53796323	      0.70628187	      0.01232694	     24.62213761	     -6.18042352	      0.00000000	      0.11732354	     -0.02278109	     -0.58584753	      0.21788154	     -0.03029886	     -0.62246300	      0.19275084	     -0.05538995	     -0.62246300	      0.13408907	     -0.05538995	     -0.51261659	      0.10894664	     -0.04645521	     -0.47600112	      0.06703867	     -0.03528792	     -0.43938565	      0.83803029	     -0.25770430	     -3.25830820	      0.00000000	      0.00000000	     27.01572809	    -15.84694549	     -3.52725426	      1.19446078	    -16.03191123	     41.65972606	     29.34245522	     70.01210144	    -10.56328361	      3.11522871	      1.40683033	    -23.77450394	    -43.07995279	    143.13753702	     52.93919189	    -14.05448125	     10.48960379
      2.96666667	      3.39603904	     -5.10424314	    101.18426500	      0.28683476	      0.89891027	      0.70670214	      4.71825116	      6.60715461	      3.64474232	     12.42715845	      0.21689483	     26.40698161	     -9.53724892	      0.00000000	     -0.98610538	     -5.93237499	      9.66418206	      0.75995420	      0.01326370	     24.73737769	     -6.01321022	      0.00000000	      0.09582378	     -0.02316755	     -0.47459646	      0.17795435	     -0.03081284	     -0.50425874	      0.15742889	     -0.05632958	     -0.50425874	      0.10951700	     -0.05632958	     -0.41527190	      0.08898197	     -0.04724327	     -0.38560962	      0.05475371	     -0.03588653	     -0.35594735	      0.68445970	     -0.26207594	     -2.63956314	      0.00000000	      0.00000000	     27.10312954	    -15.32105577	     -3.68004247	      1.01113582	    -15.97009244	     41.41329363	     29.15169681	     70.09821755	    -11.08525200	      2.12491222	     -1.34746789	    -22.33063704	    -38.99582297	    135.89106955	     53.80923409	    -11.96362189	      2.30271566
      2.98333333	      3.20853432	     -5.01447747	    101.40522667	      0.28678855	      0.89850967	      0.70804970	      4.81941507	      6.44280493	      3.41095140	     12.76157447	      0.22273149	     27.06965731	     -9.64802239	      0.00000000	     -0.99934731	     -5.74801075	      9.72367218	      0.82516376	      0.01440182	     24.85959239	     -5.83765512	      0.00000000	      0.07425141	     -0.02082232	     -0.33521620	      0.13789229	     -0.02769368	     -0.35616722	      0.12198763	     -0.05062738	     -0.35616722	      0.08486193	     -0.05062738	     -0.29331418	      0.06894986	     -0.04246087	     -0.27236317	      0.04242725	     -0.03225377	     -0.25141215	      0.53037037	     -0.23554623	     -1.86437196	      0.00000000	      0.00000000	     27.17098555	    -15.15826536	     -3.44485376	      0.89889082	    -16.03199023	     41.62037292	     28.88804953	     70.60595337	    -11.28884331	      1.49655227	     -3.46559468	    -21.00195459	    -35.67992346	    128.37903044	     55.69379719	    -10.68228020	     -2.66710649
      3.00000000	      3.14776957	     -4.96244863	    101.13193857	      0.28707901	      0.89797163	      0.70880154	      4.86845453	      6.41891374	      3.75505836	     12.95127674	      0.22604242	     27.82107260	     -9.36055943	      0.00000000	     -1.08826069	     -5.68624189	      9.57317465	      0.84394169	      0.01472956	     25.16700958	     -5.87667033	      0.00000000	      0.07009861	      0.00096018	     -0.17121135	      0.13018013	      0.00127704	     -0.18191206	      0.11516501	      0.00233459	     -0.18191206	      0.08011570	      0.00233459	     -0.14980993	      0.06509357	      0.00195801	     -0.13910922	      0.04005435	      0.00148732	     -0.12840851	      0.50070738	      0.01086179	     -0.95222618	      0.00000000	      0.00000000	     27.22088830	    -15.38358919	     -3.56207782	      0.56079588	    -15.90527764	     40.36272109	     28.68742022	     72.64092789	    -11.23515373	      1.80408061	     -5.90719787	    -19.81137270	    -34.49950744	    120.54320156	     68.60377575	     -9.21537866	     -4.14460151
      3.01666667	      3.07925582	     -4.86904641	    100.96110637	      0.28736364	      0.89760050	      0.70972489	      4.90497464	      6.39694007	      3.86227842	     13.15098155	      0.22952793	     28.38951315	     -9.10083482	      0.00000000	     -1.17283228	     -5.63306899	      9.19428844	      0.88079535	      0.01537278	     25.57747554	     -5.50833354	      0.00000000	      0.06212335	      0.03126285	     -0.11430892	      0.11536927	      0.04157959	     -0.12145323	      0.10206244	      0.07601250	     -0.12145323	      0.07100077	      0.07601250	     -0.10002031	      0.05768774	      0.06375121	     -0.09287600	      0.03549728	      0.04842616	     -0.08573169	      0.44374085	      0.35365163	     -0.63575194	      0.00000000	      0.00000000	     27.28255648	    -15.28263133	     -2.30078195	      0.90937927	    -15.84446607	     41.04539712	     27.90362859	     75.36985466	    -11.02272971	      1.90259300	     -8.35055421	    -19.01837487	    -34.63022442	    113.59945074	     86.97798838	     -7.82554888	      1.29562239
